GSerif01-TextBold01.ufo
<glyph name="comma" format="1">
  <advance width="284"/>
  <unicode hex="002C"/>
  <outline>
    <contour>
      <point x="149" y="-132" type="line"/>
      <point x="180" y="-91"/>
      <point x="211" y="-24"/>
      <point x="211" y="45" type="curve" smooth="yes"/>
      <point x="211" y="96"/>
      <point x="182" y="122"/>
      <point x="141" y="122" type="curve" smooth="yes"/>
      <point x="104" y="122"/>
      <point x="77" y="96"/>
      <point x="77" y="59" type="curve" smooth="yes"/>
      <point x="77" y="20"/>
      <point x="108" y="-9"/>
      <point x="161" y="-2" type="curve"/>
      <point x="150" y="8"/>
      <point x="154" y="17"/>
      <point x="142" y="11" type="curve"/>
      <point x="141" y="-31"/>
      <point x="104" y="-85"/>
      <point x="69" y="-132" type="curve"/>
    </contour>
  </outline>
</glyph>
<glyph name="seven" format="1">
  <advance width="570"/>
  <unicode hex="0037"/>
  <outline>
    <contour>
      <point x="87" y="0" type="line"/>
      <point x="266" y="247"/>
      <point x="404" y="433"/>
      <point x="404" y="628" type="curve"/>
      <point x="427" y="597" type="line"/>
      <point x="134" y="597" type="line"/>
      <point x="137" y="612" type="line"/>
      <point x="137" y="478" type="line"/>
      <point x="29" y="478" type="line"/>
      <point x="29" y="710" type="line"/>
      <point x="544" y="710" type="line"/>
      <point x="544" y="660" type="line" smooth="yes"/>
      <point x="544" y="422"/>
      <point x="443" y="238"/>
      <point x="285" y="0" type="curve"/>
    </contour>
  </outline>
</glyph>
<glyph name="E" format="1">
  <advance width="679"/>
  <unicode hex="0045"/>
  <outline>
    <contour>
      <point x="121" y="0" type="line"/>
      <point x="291" y="0" type="line"/>
      <point x="291" y="710" type="line"/>
      <point x="121" y="710" type="line"/>
    </contour>
    <contour>
      <point x="229" y="397" type="line"/>
      <point x="229" y="334" type="line"/>
      <point x="484" y="334" type="line"/>
      <point x="484" y="397" type="line"/>
    </contour>
    <contour>
      <point x="602" y="710" type="line"/>
      <point x="38" y="710" type="line"/>
      <point x="38" y="650" type="line"/>
      <point x="44" y="650" type="line" smooth="yes"/>
      <point x="85" y="649"/>
      <point x="121" y="643"/>
      <point x="121" y="614" type="curve"/>
      <point x="177" y="644" type="line"/>
      <point x="377" y="644" type="line" smooth="yes"/>
      <point x="473" y="644"/>
      <point x="513" y="637"/>
      <point x="518" y="601" type="curve" smooth="yes"/>
      <point x="536" y="491" type="line"/>
      <point x="602" y="491" type="line"/>
    </contour>
    <contour>
      <point x="633" y="243" type="line"/>
      <point x="565" y="243" type="line"/>
      <point x="547" y="109" type="line" smooth="yes"/>
      <point x="542" y="73"/>
      <point x="501" y="66"/>
      <point x="406" y="66" type="curve" smooth="yes"/>
      <point x="169" y="66" type="line"/>
      <point x="121" y="95" type="line"/>
      <point x="121" y="66"/>
      <point x="85" y="60"/>
      <point x="44" y="59" type="curve" smooth="yes"/>
      <point x="38" y="59" type="line"/>
      <point x="38" y="0" type="line"/>
      <point x="633" y="0" type="line"/>
    </contour>
  </outline>
</glyph>
<glyph name="F" format="1">
  <advance width="647"/>
  <unicode hex="0046"/>
  <outline>
    <contour>
      <point x="121" y="0" type="line"/>
      <point x="291" y="0" type="line"/>
      <point x="291" y="710" type="line"/>
      <point x="121" y="710" type="line"/>
    </contour>
    <contour>
      <point x="232" y="382" type="line"/>
      <point x="232" y="319" type="line"/>
      <point x="499" y="319" type="line"/>
      <point x="499" y="382" type="line"/>
    </contour>
    <contour>
      <point x="605" y="710" type="line"/>
      <point x="38" y="710" type="line"/>
      <point x="38" y="650" type="line"/>
      <point x="44" y="650" type="line" smooth="yes"/>
      <point x="85" y="649"/>
      <point x="121" y="643"/>
      <point x="121" y="614" type="curve"/>
      <point x="177" y="644" type="line"/>
      <point x="381" y="644" type="line" smooth="yes"/>
      <point x="476" y="644"/>
      <point x="516" y="637"/>
      <point x="522" y="601" type="curve" smooth="yes"/>
      <point x="540" y="491" type="line"/>
      <point x="605" y="491" type="line"/>
    </contour>
    <contour>
      <point x="38" y="0" type="line"/>
      <point x="392" y="0" type="line"/>
      <point x="392" y="59" type="line"/>
      <point x="384" y="59" type="line" smooth="yes"/>
      <point x="338" y="59"/>
      <point x="291" y="62"/>
      <point x="291" y="82" type="curve"/>
      <point x="121" y="95" type="line"/>
      <point x="121" y="66"/>
      <point x="85" y="60"/>
      <point x="44" y="59" type="curve" smooth="yes"/>
      <point x="38" y="59" type="line"/>
    </contour>
  </outline>
</glyph>
<glyph name="J" format="1">
  <advance width="547"/>
  <unicode hex="004A"/>
  <outline>
    <contour>
      <point x="40" y="7" type="line"/>
      <point x="80" y="-5"/>
      <point x="117" y="-10"/>
      <point x="171" y="-10" type="curve" smooth="yes"/>
      <point x="317" y="-10"/>
      <point x="426" y="58"/>
      <point x="426" y="247" type="curve" smooth="yes"/>
      <point x="426" y="710" type="line"/>
      <point x="256" y="710" type="line"/>
      <point x="256" y="204" type="line" smooth="yes"/>
      <point x="256" y="95"/>
      <point x="216" y="62"/>
      <point x="154" y="62" type="curve" smooth="yes"/>
      <point x="112" y="62"/>
      <point x="80" y="72"/>
      <point x="40" y="84" type="curve"/>
    </contour>
    <contour>
      <point x="426" y="615" type="line"/>
      <point x="426" y="644"/>
      <point x="462" y="650"/>
      <point x="503" y="651" type="curve" smooth="yes"/>
      <point x="509" y="651" type="line"/>
      <point x="509" y="710" type="line"/>
      <point x="167" y="710" type="line"/>
      <point x="167" y="651" type="line"/>
      <point x="177" y="651" type="line" smooth="yes"/>
      <point x="220" y="650"/>
      <point x="256" y="644"/>
      <point x="256" y="615" type="curve"/>
    </contour>
  </outline>
</glyph>
<glyph name="M" format="1">
  <advance width="982"/>
  <unicode hex="004D"/>
  <outline>
    <contour>
      <point x="860" y="0" type="line"/>
      <point x="860" y="615" type="line"/>
      <point x="860" y="644"/>
      <point x="896" y="650"/>
      <point x="937" y="651" type="curve"/>
      <point x="943" y="651" type="line"/>
      <point x="943" y="710" type="line"/>
      <point x="644" y="710" type="line"/>
      <point x="457" y="53" type="line"/>
      <point x="513" y="108" type="line"/>
      <point x="342" y="710" type="line"/>
      <point x="38" y="710" type="line"/>
      <point x="38" y="651" type="line"/>
      <point x="44" y="651" type="line"/>
      <point x="85" y="650"/>
      <point x="121" y="644"/>
      <point x="121" y="615" type="curve"/>
      <point x="121" y="0" type="line"/>
      <point x="196" y="0" type="line"/>
      <point x="196" y="698" type="line"/>
      <point x="182" y="676" type="line"/>
      <point x="392" y="-2" type="line"/>
      <point x="505" y="-2" type="line"/>
      <point x="706" y="678" type="line"/>
      <point x="693" y="698" type="line"/>
      <point x="693" y="0" type="line"/>
    </contour>
    <contour>
      <point x="943" y="0" type="line"/>
      <point x="943" y="59" type="line"/>
      <point x="937" y="59" type="line"/>
      <point x="896" y="60"/>
      <point x="860" y="66"/>
      <point x="860" y="95" type="curve"/>
      <point x="696" y="69" type="line"/>
      <point x="684" y="62"/>
      <point x="653" y="59"/>
      <point x="631" y="59" type="curve"/>
      <point x="625" y="59" type="line"/>
      <point x="625" y="0" type="line"/>
    </contour>
    <contour>
      <point x="38" y="0" type="line"/>
      <point x="270" y="0" type="line"/>
      <point x="270" y="59" type="line"/>
      <point x="268" y="59" type="line"/>
      <point x="239" y="61"/>
      <point x="196" y="64"/>
      <point x="196" y="74" type="curve"/>
      <point x="121" y="100" type="line"/>
      <point x="121" y="68"/>
      <point x="85" y="60"/>
      <point x="44" y="59" type="curve"/>
      <point x="38" y="59" type="line"/>
    </contour>
  </outline>
</glyph>
<glyph name="P" format="1">
  <advance width="711"/>
  <unicode hex="0050"/>
  <outline>
    <contour>
      <point x="123" y="0" type="line"/>
      <point x="292" y="0" type="line"/>
      <point x="292" y="710" type="line"/>
      <point x="123" y="710" type="line"/>
    </contour>
    <contour>
      <point x="40" y="0" type="line"/>
      <point x="382" y="0" type="line"/>
      <point x="382" y="59" type="line"/>
      <point x="374" y="59" type="line"/>
      <point x="336" y="59"/>
      <point x="292" y="62"/>
      <point x="292" y="83" type="curve"/>
      <point x="123" y="95" type="line"/>
      <point x="123" y="66"/>
      <point x="87" y="60"/>
      <point x="45" y="59" type="curve" smooth="yes"/>
      <point x="40" y="59" type="line"/>
    </contour>
    <contour>
      <point x="40" y="710" type="line"/>
      <point x="40" y="651" type="line"/>
      <point x="45" y="651" type="line" smooth="yes"/>
      <point x="87" y="650"/>
      <point x="123" y="644"/>
      <point x="123" y="615" type="curve"/>
      <point x="233" y="644" type="line"/>
      <point x="367" y="644" type="line" smooth="yes"/>
      <point x="461" y="644"/>
      <point x="505" y="590"/>
      <point x="505" y="497" type="curve"/>
      <point x="505" y="406"/>
      <point x="461" y="344"/>
      <point x="356" y="344" type="curve" smooth="yes"/>
      <point x="215" y="344" type="line"/>
      <point x="215" y="279" type="line"/>
      <point x="382" y="279" type="line" smooth="yes"/>
      <point x="577" y="279"/>
      <point x="677" y="374"/>
      <point x="677" y="501" type="curve"/>
      <point x="677" y="631"/>
      <point x="582" y="710"/>
      <point x="392" y="710" type="curve" smooth="yes"/>
    </contour>
  </outline>
</glyph>
<glyph name="Q" format="1">
  <advance width="834"/>
  <unicode hex="0051"/>
  <outline>
    <contour>
      <point x="417" y="-11" type="curve" smooth="yes"/>
      <point x="635" y="-11"/>
      <point x="790" y="138"/>
      <point x="790" y="355" type="curve" smooth="yes"/>
      <point x="790" y="573"/>
      <point x="635" y="721"/>
      <point x="417" y="721" type="curve" smooth="yes"/>
      <point x="199" y="721"/>
      <point x="44" y="573"/>
      <point x="44" y="355" type="curve" smooth="yes"/>
      <point x="44" y="138"/>
      <point x="199" y="-11"/>
    </contour>
    <contour>
      <point x="417" y="63" type="curve" smooth="yes"/>
      <point x="304" y="63"/>
      <point x="229" y="174"/>
      <point x="229" y="355" type="curve" smooth="yes"/>
      <point x="229" y="536"/>
      <point x="304" y="647"/>
      <point x="417" y="647" type="curve" smooth="yes"/>
      <point x="530" y="647"/>
      <point x="605" y="536"/>
      <point x="605" y="355" type="curve" smooth="yes"/>
      <point x="605" y="174"/>
      <point x="530" y="63"/>
    </contour>
    <contour>
      <point x="385" y="11" type="line"/>
      <point x="417" y="-144"/>
      <point x="516" y="-217"/>
      <point x="722" y="-212" type="curve"/>
      <point x="722" y="-69" type="line"/>
      <point x="555" y="-72"/>
      <point x="467" y="-65"/>
      <point x="452" y="36" type="curve"/>
    </contour>
  </outline>
</glyph>
<glyph name="X" format="1">
  <advance width="800"/>
  <unicode hex="0058"/>
  <outline>
    <contour>
      <point x="69" y="684" type="line"/>
      <point x="311" y="340" type="line"/>
      <point x="331" y="332" type="line"/>
      <point x="570" y="0" type="line"/>
      <point x="736" y="33" type="line"/>
      <point x="475" y="397" type="line"/>
      <point x="457" y="401" type="line"/>
      <point x="240" y="710" type="line"/>
    </contour>
    <contour>
      <point x="328" y="398" type="line"/>
      <point x="64" y="28" type="line"/>
      <point x="130" y="0" type="line"/>
      <point x="369" y="338" type="line"/>
    </contour>
    <contour>
      <point x="463" y="337" type="line"/>
      <point x="709" y="690" type="line"/>
      <point x="638" y="710" type="line"/>
      <point x="423" y="396" type="line"/>
    </contour>
    <contour>
      <point x="738" y="710" type="line"/>
      <point x="501" y="710" type="line"/>
      <point x="501" y="651" type="line"/>
      <point x="508" y="651" type="line" smooth="yes"/>
      <point x="544" y="651"/>
      <point x="589" y="647"/>
      <point x="589" y="638" type="curve"/>
      <point x="655" y="612" type="line"/>
      <point x="677" y="645"/>
      <point x="695" y="651"/>
      <point x="735" y="651" type="curve" smooth="yes"/>
      <point x="738" y="651" type="line"/>
    </contour>
    <contour>
      <point x="30" y="0" type="line"/>
      <point x="273" y="0" type="line"/>
      <point x="273" y="59" type="line"/>
      <point x="265" y="59" type="line" smooth="yes"/>
      <point x="229" y="59"/>
      <point x="183" y="65"/>
      <point x="183" y="73" type="curve"/>
      <point x="115" y="98" type="line"/>
      <point x="92" y="65"/>
      <point x="76" y="59"/>
      <point x="35" y="59" type="curve" smooth="yes"/>
      <point x="30" y="59" type="line"/>
    </contour>
    <contour>
      <point x="38" y="651" type="line"/>
      <point x="41" y="651" type="line" smooth="yes"/>
      <point x="78" y="651"/>
      <point x="94" y="649"/>
      <point x="115" y="618" type="curve"/>
      <point x="289" y="641" type="line"/>
      <point x="289" y="648"/>
      <point x="335" y="651"/>
      <point x="371" y="651" type="curve" smooth="yes"/>
      <point x="381" y="651" type="line"/>
      <point x="381" y="710" type="line"/>
      <point x="38" y="710" type="line"/>
    </contour>
    <contour>
      <point x="772" y="0" type="line"/>
      <point x="772" y="59" type="line"/>
      <point x="767" y="59" type="line" smooth="yes"/>
      <point x="729" y="59"/>
      <point x="714" y="62"/>
      <point x="693" y="92" type="curve"/>
      <point x="519" y="69" type="line"/>
      <point x="519" y="62"/>
      <point x="474" y="59"/>
      <point x="438" y="59" type="curve" smooth="yes"/>
      <point x="427" y="59" type="line"/>
      <point x="427" y="0" type="line"/>
    </contour>
  </outline>
</glyph>
<glyph name="Y" format="1">
  <advance width="734"/>
  <unicode hex="0059"/>
  <outline>
    <contour>
      <point x="287" y="0" type="line"/>
      <point x="457" y="0" type="line"/>
      <point x="457" y="322" type="line"/>
      <point x="287" y="317" type="line"/>
    </contour>
    <contour>
      <point x="670" y="677" type="line"/>
      <point x="610" y="710" type="line"/>
      <point x="389" y="303" type="line"/>
      <point x="429" y="330" type="line"/>
      <point x="214" y="710" type="line"/>
      <point x="58" y="683" type="line"/>
      <point x="312" y="252" type="line"/>
      <point x="421" y="228" type="line"/>
    </contour>
    <contour>
      <point x="715" y="710" type="line"/>
      <point x="477" y="710" type="line"/>
      <point x="477" y="651" type="line"/>
      <point x="485" y="651" type="line" smooth="yes"/>
      <point x="523" y="651"/>
      <point x="567" y="645"/>
      <point x="567" y="632" type="curve"/>
      <point x="631" y="608" type="line"/>
      <point x="651" y="644"/>
      <point x="674" y="651"/>
      <point x="712" y="651" type="curve" smooth="yes"/>
      <point x="715" y="651" type="line"/>
    </contour>
    <contour>
      <point x="19" y="710" type="line"/>
      <point x="19" y="651" type="line"/>
      <point x="22" y="651" type="line" smooth="yes"/>
      <point x="60" y="651"/>
      <point x="78" y="649"/>
      <point x="96" y="618" type="curve"/>
      <point x="254" y="641" type="line"/>
      <point x="254" y="648"/>
      <point x="295" y="651"/>
      <point x="330" y="651" type="curve" smooth="yes"/>
      <point x="340" y="651" type="line"/>
      <point x="340" y="710" type="line"/>
    </contour>
    <contour>
      <point x="202" y="0" type="line"/>
      <point x="542" y="0" type="line"/>
      <point x="542" y="59" type="line"/>
      <point x="534" y="59" type="line" smooth="yes"/>
      <point x="493" y="60"/>
      <point x="457" y="66"/>
      <point x="457" y="95" type="curve"/>
      <point x="287" y="95" type="line"/>
      <point x="287" y="66"/>
      <point x="251" y="60"/>
      <point x="209" y="59" type="curve" smooth="yes"/>
      <point x="202" y="59" type="line"/>
    </contour>
  </outline>
</glyph>
<glyph name="c" format="1">
  <advance width="623"/>
  <unicode hex="0063"/>
  <outline>
    <contour>
      <point x="366" y="59" type="curve" smooth="yes"/>
      <point x="263" y="59"/>
      <point x="206" y="142"/>
      <point x="206" y="267" type="curve" smooth="yes"/>
      <point x="206" y="397"/>
      <point x="256" y="481"/>
      <point x="345" y="481" type="curve" smooth="yes"/>
      <point x="404" y="481"/>
      <point x="444" y="451"/>
      <point x="465" y="405" type="curve"/>
      <point x="490" y="441"/>
      <point x="476" y="475"/>
      <point x="435" y="469" type="curve"/>
      <point x="435" y="343" type="line"/>
      <point x="583" y="343" type="line"/>
      <point x="583" y="431" type="line"/>
      <point x="550" y="499"/>
      <point x="464" y="552"/>
      <point x="337" y="552" type="curve" smooth="yes"/>
      <point x="160" y="552"/>
      <point x="41" y="433"/>
      <point x="41" y="267" type="curve" smooth="yes"/>
      <point x="41" y="105"/>
      <point x="165" y="-12"/>
      <point x="344" y="-12" type="curve" smooth="yes"/>
      <point x="468" y="-12"/>
      <point x="553" y="48"/>
      <point x="593" y="127" type="curve"/>
      <point x="529" y="162" type="line"/>
      <point x="503" y="116"/>
      <point x="455" y="59"/>
    </contour>
  </outline>
</glyph>
<glyph name="e" format="1">
  <advance width="623"/>
  <unicode hex="0065"/>
  <outline>
    <contour>
      <point x="201" y="268" type="curve" smooth="yes"/>
      <point x="201" y="410"/>
      <point x="253" y="484"/>
      <point x="322" y="484" type="curve"/>
      <point x="394" y="484"/>
      <point x="423" y="424"/>
      <point x="426" y="281" type="curve"/>
      <point x="487" y="300" type="line"/>
      <point x="138" y="300" type="line"/>
      <point x="139" y="240" type="line"/>
      <point x="587" y="240" type="line"/>
      <point x="587" y="444"/>
      <point x="494" y="552"/>
      <point x="322" y="552" type="curve"/>
      <point x="164" y="552"/>
      <point x="41" y="444"/>
      <point x="41" y="270" type="curve" smooth="yes"/>
      <point x="41" y="92"/>
      <point x="166" y="-12"/>
      <point x="338" y="-12" type="curve" smooth="yes"/>
      <point x="460" y="-12"/>
      <point x="544" y="44"/>
      <point x="583" y="122" type="curve"/>
      <point x="519" y="156" type="line"/>
      <point x="494" y="111"/>
      <point x="445" y="57"/>
      <point x="359" y="57" type="curve" smooth="yes"/>
      <point x="259" y="57"/>
      <point x="201" y="132"/>
    </contour>
  </outline>
</glyph>
<glyph name="g" format="1">
  <advance width="653"/>
  <unicode hex="0067"/>
  <outline>
    <contour>
      <point x="288" y="-245" type="curve" smooth="yes"/>
      <point x="341" y="-245" type="line" smooth="yes"/>
      <point x="506" y="-245"/>
      <point x="636" y="-184"/>
      <point x="636" y="-53" type="curve" smooth="yes"/>
      <point x="636" y="40"/>
      <point x="570" y="88"/>
      <point x="435" y="88" type="curve" smooth="yes"/>
      <point x="227" y="88" type="line" smooth="yes"/>
      <point x="179" y="88"/>
      <point x="153" y="99"/>
      <point x="153" y="126" type="curve" smooth="yes"/>
      <point x="153" y="153"/>
      <point x="177" y="178"/>
      <point x="233" y="203" type="curve"/>
      <point x="240" y="220"/>
      <point x="203" y="251"/>
      <point x="191" y="230" type="curve"/>
      <point x="98" y="186"/>
      <point x="58" y="142"/>
      <point x="58" y="85" type="curve" smooth="yes"/>
      <point x="58" y="38"/>
      <point x="86" y="1"/>
      <point x="139" y="-16" type="curve"/>
      <point x="126" y="-20"/>
      <point x="123" y="-33"/>
      <point x="124" y="-40" type="curve"/>
      <point x="407" y="-40" type="line" smooth="yes"/>
      <point x="492" y="-40"/>
      <point x="517" y="-55"/>
      <point x="517" y="-94" type="curve" smooth="yes"/>
      <point x="517" y="-151"/>
      <point x="447" y="-187"/>
      <point x="336" y="-187" type="curve" smooth="yes"/>
      <point x="293" y="-187" type="line" smooth="yes"/>
      <point x="181" y="-187"/>
      <point x="123" y="-160"/>
      <point x="123" y="-109" type="curve" smooth="yes"/>
      <point x="123" y="-74"/>
      <point x="143" y="-44"/>
      <point x="194" y="-17" type="curve"/>
      <point x="162" y="7" type="line"/>
      <point x="66" y="-24"/>
      <point x="22" y="-59"/>
      <point x="22" y="-116" type="curve"/>
      <point x="22" y="-209"/>
      <point x="134" y="-245"/>
    </contour>
    <contour>
      <point x="228" y="356" type="curve" smooth="yes"/>
      <point x="228" y="440"/>
      <point x="262" y="490"/>
      <point x="314" y="490" type="curve" smooth="yes"/>
      <point x="368" y="490"/>
      <point x="402" y="440"/>
      <point x="402" y="356" type="curve" smooth="yes"/>
      <point x="402" y="276"/>
      <point x="369" y="229"/>
      <point x="315" y="229" type="curve" smooth="yes"/>
      <point x="262" y="229"/>
      <point x="228" y="276"/>
    </contour>
    <contour>
      <point x="314" y="170" type="curve" smooth="yes"/>
      <point x="459" y="170"/>
      <point x="555" y="243"/>
      <point x="555" y="359" type="curve" smooth="yes"/>
      <point x="555" y="474"/>
      <point x="462" y="551"/>
      <point x="314" y="552" type="curve" smooth="yes"/>
      <point x="172" y="552"/>
      <point x="76" y="474"/>
      <point x="76" y="359" type="curve" smooth="yes"/>
      <point x="76" y="243"/>
      <point x="171" y="170"/>
    </contour>
    <contour>
      <point x="633" y="461" type="curve"/>
      <point x="633" y="566" type="line"/>
      <point x="557" y="569"/>
      <point x="505" y="534"/>
      <point x="465" y="465" type="curve"/>
      <point x="465" y="457"/>
      <point x="485" y="436"/>
      <point x="489" y="446" type="curve"/>
      <point x="516" y="473"/>
      <point x="561" y="470"/>
    </contour>
  </outline>
</glyph>
<glyph name="i" format="1">
  <advance width="362"/>
  <unicode hex="0069"/>
  <outline>
    <contour>
      <point x="179" y="620" type="curve" smooth="yes"/>
      <point x="236" y="620"/>
      <point x="273" y="651"/>
      <point x="273" y="698" type="curve" smooth="yes"/>
      <point x="273" y="744"/>
      <point x="236" y="777"/>
      <point x="179" y="777" type="curve" smooth="yes"/>
      <point x="121" y="777"/>
      <point x="84" y="744"/>
      <point x="84" y="698" type="curve" smooth="yes"/>
      <point x="84" y="651"/>
      <point x="121" y="620"/>
    </contour>
    <contour>
      <point x="34" y="542" type="line"/>
      <point x="34" y="488" type="line"/>
      <point x="44" y="485" type="line" smooth="yes"/>
      <point x="83" y="476"/>
      <point x="107" y="470"/>
      <point x="107" y="441" type="curve" smooth="yes"/>
      <point x="107" y="0" type="line"/>
      <point x="262" y="0" type="line"/>
      <point x="262" y="542" type="line"/>
    </contour>
    <contour>
      <point x="335" y="0" type="line"/>
      <point x="335" y="51" type="line"/>
      <point x="335" y="51" type="line"/>
      <point x="298" y="53"/>
      <point x="262" y="59"/>
      <point x="262" y="88" type="curve"/>
      <point x="107" y="88" type="line"/>
      <point x="107" y="59"/>
      <point x="72" y="53"/>
      <point x="35" y="51" type="curve"/>
      <point x="34" y="51" type="line"/>
      <point x="34" y="0" type="line"/>
    </contour>
  </outline>
</glyph>
<glyph name="j" format="1">
  <advance width="362"/>
  <unicode hex="006A"/>
  <outline>
    <contour>
      <point x="179" y="620" type="curve" smooth="yes"/>
      <point x="236" y="620"/>
      <point x="273" y="651"/>
      <point x="273" y="698" type="curve" smooth="yes"/>
      <point x="273" y="744"/>
      <point x="236" y="777"/>
      <point x="179" y="777" type="curve" smooth="yes"/>
      <point x="121" y="777"/>
      <point x="84" y="744"/>
      <point x="84" y="698" type="curve" smooth="yes"/>
      <point x="84" y="651"/>
      <point x="121" y="620"/>
    </contour>
    <contour>
      <point x="262" y="-24" type="curve" smooth="yes"/>
      <point x="262" y="542" type="line"/>
      <point x="26" y="542" type="line"/>
      <point x="26" y="488" type="line"/>
      <point x="42" y="485" type="line" smooth="yes"/>
      <point x="82" y="479"/>
      <point x="107" y="470"/>
      <point x="107" y="441" type="curve" smooth="yes"/>
      <point x="107" y="-62" type="line" smooth="yes"/>
      <point x="107" y="-142"/>
      <point x="66" y="-172"/>
      <point x="8" y="-172" type="curve" smooth="yes"/>
      <point x="-24" y="-172"/>
      <point x="-49" y="-167"/>
      <point x="-72" y="-161" type="curve"/>
      <point x="-72" y="-228" type="line"/>
      <point x="-52" y="-235"/>
      <point x="-13" y="-240"/>
      <point x="30" y="-240" type="curve" smooth="yes"/>
      <point x="143" y="-240"/>
      <point x="262" y="-196"/>
    </contour>
  </outline>
</glyph>
<glyph name="n" format="1">
  <advance width="706"/>
  <unicode hex="006E"/>
  <outline>
    <contour>
      <point x="34" y="0" type="line"/>
      <point x="320" y="0" type="line"/>
      <point x="320" y="51" type="line"/>
      <point x="320" y="51" type="line"/>
      <point x="297" y="52"/>
      <point x="262" y="55"/>
      <point x="262" y="61" type="curve"/>
      <point x="107" y="88" type="line"/>
      <point x="107" y="59"/>
      <point x="71" y="53"/>
      <point x="34" y="51" type="curve"/>
      <point x="34" y="51" type="line"/>
    </contour>
    <contour>
      <point x="34" y="542" type="line"/>
      <point x="34" y="488" type="line"/>
      <point x="43" y="485" type="line" smooth="yes"/>
      <point x="82" y="476"/>
      <point x="107" y="470"/>
      <point x="107" y="441" type="curve" smooth="yes"/>
      <point x="107" y="0" type="line"/>
      <point x="262" y="0" type="line"/>
      <point x="262" y="437" type="line"/>
      <point x="254" y="441" type="line"/>
      <point x="254" y="542" type="line"/>
    </contour>
    <contour>
      <point x="683" y="0" type="line"/>
      <point x="683" y="51" type="line"/>
      <point x="682" y="51" type="line"/>
      <point x="645" y="53"/>
      <point x="610" y="59"/>
      <point x="610" y="88" type="curve"/>
      <point x="455" y="61" type="line"/>
      <point x="455" y="55"/>
      <point x="419" y="52"/>
      <point x="397" y="51" type="curve"/>
      <point x="397" y="51" type="line"/>
      <point x="397" y="0" type="line"/>
    </contour>
    <contour>
      <point x="455" y="0" type="line"/>
      <point x="610" y="0" type="line"/>
      <point x="610" y="384" type="line" smooth="yes"/>
      <point x="610" y="499"/>
      <point x="539" y="552"/>
      <point x="435" y="552" type="curve" smooth="yes"/>
      <point x="333" y="552"/>
      <point x="270" y="501"/>
      <point x="201" y="383" type="curve"/>
      <point x="204" y="375"/>
      <point x="231" y="354"/>
      <point x="231" y="355" type="curve"/>
      <point x="276" y="433"/>
      <point x="326" y="474"/>
      <point x="384" y="474" type="curve" smooth="yes"/>
      <point x="437" y="474"/>
      <point x="455" y="447"/>
      <point x="455" y="383" type="curve" smooth="yes"/>
    </contour>
  </outline>
</glyph>
<glyph name="o" format="1">
  <advance width="676"/>
  <unicode hex="006F"/>
  <outline>
    <contour>
      <point x="338" y="-12" type="curve"/>
      <point x="510" y="-12"/>
      <point x="635" y="93"/>
      <point x="635" y="270" type="curve" smooth="yes"/>
      <point x="635" y="447"/>
      <point x="510" y="552"/>
      <point x="338" y="552" type="curve" smooth="yes"/>
      <point x="166" y="552"/>
      <point x="41" y="447"/>
      <point x="41" y="270" type="curve" smooth="yes"/>
      <point x="41" y="93"/>
      <point x="166" y="-12"/>
    </contour>
    <contour>
      <point x="338" y="57" type="curve"/>
      <point x="255" y="57"/>
      <point x="206" y="135"/>
      <point x="206" y="270" type="curve" smooth="yes"/>
      <point x="206" y="403"/>
      <point x="255" y="483"/>
      <point x="338" y="483" type="curve" smooth="yes"/>
      <point x="421" y="483"/>
      <point x="470" y="405"/>
      <point x="470" y="270" type="curve" smooth="yes"/>
      <point x="470" y="135"/>
      <point x="421" y="57"/>
    </contour>
  </outline>
</glyph>
<glyph name="r" format="1">
  <advance width="456"/>
  <unicode hex="0072"/>
  <outline>
    <contour>
      <point x="429" y="550" type="line"/>
      <point x="425" y="552"/>
      <point x="414" y="553"/>
      <point x="399" y="553" type="curve" smooth="yes"/>
      <point x="325" y="553"/>
      <point x="274" y="491"/>
      <point x="240" y="376" type="curve"/>
      <point x="247" y="330" type="line"/>
      <point x="278" y="406"/>
      <point x="316" y="425"/>
      <point x="372" y="425" type="curve" smooth="yes"/>
      <point x="391" y="425"/>
      <point x="410" y="423"/>
      <point x="429" y="419" type="curve"/>
    </contour>
    <contour>
      <point x="34" y="0" type="line"/>
      <point x="342" y="0" type="line"/>
      <point x="342" y="51" type="line"/>
      <point x="334" y="51" type="line" smooth="yes"/>
      <point x="302" y="52"/>
      <point x="262" y="55"/>
      <point x="262" y="73" type="curve"/>
      <point x="107" y="88" type="line"/>
      <point x="107" y="59"/>
      <point x="71" y="53"/>
      <point x="34" y="51" type="curve"/>
      <point x="34" y="51" type="line"/>
    </contour>
    <contour>
      <point x="34" y="542" type="line"/>
      <point x="34" y="488" type="line"/>
      <point x="43" y="485" type="line" smooth="yes"/>
      <point x="82" y="476"/>
      <point x="107" y="470"/>
      <point x="107" y="441" type="curve" smooth="yes"/>
      <point x="107" y="0" type="line"/>
      <point x="262" y="0" type="line"/>
      <point x="262" y="389" type="line"/>
      <point x="254" y="384" type="line"/>
      <point x="254" y="542" type="line"/>
    </contour>
  </outline>
</glyph>
<glyph name="quoteright" format="1">
  <advance width="253"/>
  <unicode hex="2019"/>
  <outline>
    <contour>
      <point x="135" y="485" type="curve"/>
      <point x="160" y="518"/>
      <point x="190" y="583"/>
      <point x="190" y="644" type="curve" smooth="yes"/>
      <point x="190" y="691"/>
      <point x="163" y="715"/>
      <point x="125" y="715" type="curve" smooth="yes"/>
      <point x="90" y="715"/>
      <point x="65" y="691"/>
      <point x="65" y="656" type="curve" smooth="yes"/>
      <point x="65" y="621"/>
      <point x="93" y="595"/>
      <point x="143" y="601" type="curve"/>
      <point x="133" y="610"/>
      <point x="137" y="618"/>
      <point x="126" y="612" type="curve"/>
      <point x="125" y="577"/>
      <point x="93" y="526"/>
      <point x="63" y="485" type="curve"/>
      <point x="72" y="485"/>
      <point x="125" y="485"/>
    </contour>
  </outline>
</glyph>
<glyph name="C.alt" format="1">
  <advance width="775"/>
  <outline>
    <contour>
      <point x="45" y="354" type="curve" smooth="yes"/>
      <point x="45" y="136"/>
      <point x="206" y="-11"/>
      <point x="425" y="-11" type="curve" smooth="yes"/>
      <point x="598" y="-11"/>
      <point x="718" y="85"/>
      <point x="751" y="222" type="curve"/>
      <point x="627" y="260" type="line"/>
      <point x="603" y="175"/>
      <point x="543" y="105"/>
      <point x="437" y="105" type="curve" smooth="yes"/>
      <point x="311" y="105"/>
      <point x="230" y="204"/>
      <point x="230" y="354" type="curve" smooth="yes"/>
      <point x="230" y="507"/>
      <point x="307" y="607"/>
      <point x="435" y="607" type="curve" smooth="yes"/>
      <point x="514" y="607"/>
      <point x="574" y="571"/>
      <point x="600" y="516" type="curve"/>
      <point x="607" y="556"/>
      <point x="584" y="574"/>
      <point x="560" y="573" type="curve"/>
      <point x="560" y="470" type="line"/>
      <point x="725" y="470" type="line"/>
      <point x="725" y="611" type="line"/>
      <point x="681" y="665"/>
      <point x="579" y="721"/>
      <point x="431" y="721" type="curve" smooth="yes"/>
      <point x="203" y="721"/>
      <point x="45" y="569"/>
    </contour>
  </outline>
</glyph>
<glyph name="C.srf" format="1">
  <advance width="795"/>
  <outline>
    <contour>
      <point x="437" y="646" type="curve" smooth="yes"/>
      <point x="550" y="646"/>
      <point x="619" y="583"/>
      <point x="655" y="472" type="curve"/>
      <point x="745" y="472" type="line"/>
      <point x="745" y="711" type="line"/>
      <point x="670" y="711" type="line"/>
      <point x="653" y="533" type="line"/>
      <point x="664" y="520"/>
      <point x="672" y="542"/>
      <point x="696" y="525" type="curve"/>
      <point x="660" y="630"/>
      <point x="573" y="721"/>
      <point x="422" y="721" type="curve" smooth="yes"/>
      <point x="203" y="721"/>
      <point x="44" y="569"/>
      <point x="44" y="354" type="curve" smooth="yes"/>
      <point x="44" y="136"/>
      <point x="207" y="-11"/>
      <point x="430" y="-11" type="curve" smooth="yes"/>
      <point x="605" y="-11"/>
      <point x="725" y="87"/>
      <point x="758" y="227" type="curve"/>
      <point x="684" y="254" type="line"/>
      <point x="655" y="145"/>
      <point x="576" y="64"/>
      <point x="455" y="64" type="curve" smooth="yes"/>
      <point x="311" y="64"/>
      <point x="230" y="180"/>
      <point x="230" y="354" type="curve" smooth="yes"/>
      <point x="230" y="531"/>
      <point x="311" y="646"/>
    </contour>
  </outline>
</glyph>
<glyph name="F.alt" format="1">
  <advance width="655"/>
  <outline>
    <contour>
      <point x="121" y="0" type="line"/>
      <point x="291" y="0" type="line"/>
      <point x="291" y="710" type="line"/>
      <point x="121" y="710" type="line"/>
    </contour>
    <contour>
      <point x="38" y="710" type="line"/>
      <point x="38" y="650" type="line"/>
      <point x="44" y="650" type="line" smooth="yes"/>
      <point x="85" y="649"/>
      <point x="121" y="643"/>
      <point x="121" y="614" type="curve"/>
      <point x="177" y="644" type="line"/>
      <point x="390" y="644" type="line" smooth="yes"/>
      <point x="485" y="644"/>
      <point x="525" y="637"/>
      <point x="531" y="601" type="curve" smooth="yes"/>
      <point x="549" y="491" type="line"/>
      <point x="614" y="491" type="line"/>
      <point x="614" y="710" type="line"/>
    </contour>
    <contour>
      <point x="38" y="0" type="line"/>
      <point x="392" y="0" type="line"/>
      <point x="392" y="59" type="line"/>
      <point x="384" y="59" type="line" smooth="yes"/>
      <point x="338" y="59"/>
      <point x="291" y="62"/>
      <point x="291" y="81" type="curve"/>
      <point x="121" y="95" type="line"/>
      <point x="121" y="66"/>
      <point x="85" y="60"/>
      <point x="44" y="59" type="curve" smooth="yes"/>
      <point x="38" y="59" type="line"/>
    </contour>
    <contour>
      <point x="235" y="382" type="line"/>
      <point x="235" y="318" type="line"/>
      <point x="494" y="318" type="line"/>
      <point x="494" y="382" type="line"/>
    </contour>
    <contour>
      <point x="510" y="247" type="line"/>
      <point x="510" y="454" type="line"/>
      <point x="456" y="454" type="line"/>
      <point x="456" y="451" type="line"/>
      <point x="456" y="409"/>
      <point x="448" y="382"/>
      <point x="419" y="382" type="curve"/>
      <point x="419" y="318" type="line"/>
      <point x="448" y="318"/>
      <point x="456" y="291"/>
      <point x="456" y="250" type="curve"/>
      <point x="456" y="247" type="line"/>
    </contour>
  </outline>
</glyph>
<glyph name="Q.alt" format="1">
  <advance width="834"/>
  <outline>
    <contour>
      <point x="395" y="245" type="line"/>
      <point x="545" y="42"/>
      <point x="610" y="-48"/>
      <point x="865" y="-37" type="curve"/>
      <point x="865" y="94" type="line"/>
      <point x="662" y="63"/>
      <point x="589" y="104"/>
      <point x="454" y="285" type="curve"/>
    </contour>
    <contour>
      <point x="417" y="-11" type="curve" smooth="yes"/>
      <point x="635" y="-11"/>
      <point x="790" y="140"/>
      <point x="790" y="355" type="curve" smooth="yes"/>
      <point x="790" y="573"/>
      <point x="635" y="721"/>
      <point x="417" y="721" type="curve" smooth="yes"/>
      <point x="199" y="721"/>
      <point x="44" y="573"/>
      <point x="44" y="355" type="curve" smooth="yes"/>
      <point x="44" y="138"/>
      <point x="199" y="-11"/>
    </contour>
    <contour>
      <point x="417" y="62" type="curve" smooth="yes"/>
      <point x="304" y="62"/>
      <point x="229" y="173"/>
      <point x="229" y="355" type="curve" smooth="yes"/>
      <point x="229" y="536"/>
      <point x="304" y="647"/>
      <point x="417" y="647" type="curve" smooth="yes"/>
      <point x="530" y="647"/>
      <point x="605" y="536"/>
      <point x="605" y="355" type="curve" smooth="yes"/>
      <point x="605" y="169"/>
      <point x="531" y="62"/>
    </contour>
  </outline>
</glyph>
<glyph name="a.alt" format="1">
  <advance width="612"/>
  <outline>
    <contour>
      <point x="428" y="330" type="line"/>
      <point x="167" y="311"/>
      <point x="38" y="248"/>
      <point x="38" y="132" type="curve" smooth="yes"/>
      <point x="38" y="40"/>
      <point x="112" y="-12"/>
      <point x="214" y="-12" type="curve" smooth="yes"/>
      <point x="306" y="-12"/>
      <point x="363" y="35"/>
      <point x="393" y="100" type="curve"/>
      <point x="434" y="164"/>
      <point x="385" y="151"/>
      <point x="376" y="148" type="curve"/>
      <point x="356" y="105"/>
      <point x="317" y="72"/>
      <point x="271" y="72" type="curve" smooth="yes"/>
      <point x="226" y="72"/>
      <point x="198" y="95"/>
      <point x="198" y="138" type="curve" smooth="yes"/>
      <point x="198" y="200"/>
      <point x="257" y="240"/>
      <point x="412" y="256" type="curve"/>
    </contour>
    <contour>
      <point x="292" y="459" type="curve" smooth="yes"/>
      <point x="340" y="459"/>
      <point x="369" y="439"/>
      <point x="369" y="371" type="curve" smooth="yes"/>
      <point x="369" y="108" type="line"/>
      <point x="379" y="104" type="line"/>
      <point x="379" y="0" type="line"/>
      <point x="593" y="0" type="line"/>
      <point x="593" y="74" type="line"/>
      <point x="592" y="74" type="line" smooth="yes"/>
      <point x="559" y="75"/>
      <point x="521" y="81"/>
      <point x="521" y="111" type="curve" smooth="yes"/>
      <point x="521" y="380" type="line" smooth="yes"/>
      <point x="521" y="512"/>
      <point x="408" y="551"/>
      <point x="299" y="551" type="curve" smooth="yes"/>
      <point x="171" y="551"/>
      <point x="69" y="489"/>
      <point x="57" y="379" type="curve"/>
      <point x="205" y="379" type="line"/>
      <point x="212" y="436"/>
      <point x="244" y="459"/>
    </contour>
  </outline>
</glyph>
<glyph name="five.alt3" format="1">
  <advance width="649"/>
  <outline>
    <contour>
      <point x="472" y="613" type="line"/>
      <point x="472" y="613" type="line"/>
      <point x="472" y="535" type="line"/>
      <point x="570" y="535" type="line"/>
      <point x="570" y="720" type="line"/>
      <point x="137" y="720" type="line"/>
      <point x="76" y="407" type="line"/>
      <point x="76" y="350" type="line"/>
      <point x="246" y="350" type="line" smooth="yes"/>
      <point x="381" y="350"/>
      <point x="450" y="312"/>
      <point x="450" y="221" type="curve" smooth="yes"/>
      <point x="450" y="134"/>
      <point x="400" y="93"/>
      <point x="331" y="93" type="curve" smooth="yes"/>
      <point x="257" y="93"/>
      <point x="209" y="130"/>
      <point x="198" y="222" type="curve"/>
      <point x="33" y="222" type="line"/>
      <point x="52" y="66"/>
      <point x="167" y="-10"/>
      <point x="332" y="-10" type="curve" smooth="yes"/>
      <point x="483" y="-10"/>
      <point x="611" y="67"/>
      <point x="611" y="220" type="curve" smooth="yes"/>
      <point x="611" y="359"/>
      <point x="500" y="446"/>
      <point x="288" y="446" type="curve" smooth="yes"/>
      <point x="141" y="446" type="line"/>
      <point x="201" y="405" type="line"/>
      <point x="252" y="669" type="line"/>
      <point x="200" y="613" type="line"/>
    </contour>
  </outline>
</glyph>
<glyph name="four.alt" format="1">
  <advance width="647"/>
  <outline>
    <contour>
      <point x="252" y="90" type="line"/>
      <point x="252" y="0" type="line"/>
      <point x="622" y="0" type="line"/>
      <point x="622" y="90" type="line"/>
      <point x="516" y="90" type="line"/>
      <point x="516" y="90" type="line"/>
      <point x="358" y="90" type="line"/>
      <point x="358" y="90" type="line"/>
    </contour>
    <contour>
      <point x="359" y="524" type="line"/>
      <point x="358" y="0" type="line"/>
      <point x="516" y="0" type="line"/>
      <point x="517" y="524" type="line"/>
    </contour>
    <contour>
      <point x="28" y="194" type="line"/>
      <point x="629" y="194" type="line"/>
      <point x="629" y="284" type="line"/>
      <point x="101" y="284" type="line"/>
      <point x="123" y="249" type="line"/>
      <point x="503" y="710" type="line"/>
      <point x="342" y="710" type="line"/>
      <point x="28" y="285" type="line"/>
    </contour>
  </outline>
</glyph>
<glyph name="g.alt" format="1">
  <advance width="702"/>
  <outline>
    <contour>
      <point x="206" y="268" type="curve" smooth="yes"/>
      <point x="206" y="396"/>
      <point x="250" y="477"/>
      <point x="333" y="477" type="curve" smooth="yes"/>
      <point x="402" y="477"/>
      <point x="449" y="440"/>
      <point x="486" y="356" type="curve"/>
      <point x="490" y="356"/>
      <point x="528" y="376"/>
      <point x="530" y="375" type="curve"/>
      <point x="469" y="499"/>
      <point x="406" y="552"/>
      <point x="296" y="552" type="curve" smooth="yes"/>
      <point x="143" y="552"/>
      <point x="41" y="437"/>
      <point x="41" y="268" type="curve" smooth="yes"/>
      <point x="41" y="100"/>
      <point x="140" y="-12"/>
      <point x="290" y="-12" type="curve" smooth="yes"/>
      <point x="399" y="-12"/>
      <point x="459" y="43"/>
      <point x="530" y="170" type="curve"/>
      <point x="527" y="169"/>
      <point x="493" y="195"/>
      <point x="494" y="192" type="curve"/>
      <point x="455" y="108"/>
      <point x="402" y="63"/>
      <point x="332" y="63" type="curve" smooth="yes"/>
      <point x="251" y="63"/>
      <point x="206" y="144"/>
    </contour>
    <contour>
      <point x="618" y="51" type="curve" smooth="yes"/>
      <point x="618" y="545" type="line"/>
      <point x="541" y="545" type="line"/>
      <point x="472" y="440" type="line"/>
      <point x="463" y="433" type="line"/>
      <point x="463" y="34" type="line" smooth="yes"/>
      <point x="463" y="-121"/>
      <point x="407" y="-181"/>
      <point x="316" y="-181" type="curve" smooth="yes"/>
      <point x="251" y="-181"/>
      <point x="208" y="-158"/>
      <point x="186" y="-123" type="curve"/>
      <point x="185" y="-165"/>
      <point x="200" y="-190"/>
      <point x="219" y="-191" type="curve"/>
      <point x="219" y="-55" type="line"/>
      <point x="69" y="-55" type="line"/>
      <point x="69" y="-150" type="line"/>
      <point x="106" y="-201"/>
      <point x="204" y="-241"/>
      <point x="319" y="-241" type="curve" smooth="yes"/>
      <point x="499" y="-241"/>
      <point x="618" y="-140"/>
    </contour>
  </outline>
</glyph>
<glyph name="k.alt" format="1">
  <advance width="710"/>
  <outline>
    <contour>
      <point x="395" y="343" type="line"/>
      <point x="370" y="283" type="line"/>
      <point x="609" y="502" type="line"/>
      <point x="587" y="535" type="line"/>
      <point x="541" y="531" type="line"/>
      <point x="283" y="292" type="line"/>
      <point x="280" y="279" type="line"/>
      <point x="512" y="0" type="line"/>
      <point x="623" y="0" type="line"/>
      <point x="652" y="42" type="line"/>
    </contour>
    <contour>
      <point x="34" y="0" type="line"/>
      <point x="321" y="0" type="line"/>
      <point x="321" y="51" type="line"/>
      <point x="321" y="51" type="line"/>
      <point x="298" y="52"/>
      <point x="262" y="55"/>
      <point x="262" y="61" type="curve"/>
      <point x="107" y="88" type="line"/>
      <point x="107" y="59"/>
      <point x="72" y="53"/>
      <point x="35" y="51" type="curve"/>
      <point x="34" y="51" type="line"/>
    </contour>
    <contour>
      <point x="701" y="0" type="line"/>
      <point x="701" y="51" type="line"/>
      <point x="700" y="51" type="line"/>
      <point x="665" y="53"/>
      <point x="641" y="57"/>
      <point x="613" y="88" type="curve"/>
      <point x="459" y="61" type="line"/>
      <point x="459" y="55"/>
      <point x="419" y="52"/>
      <point x="394" y="51" type="curve"/>
      <point x="394" y="51" type="line"/>
      <point x="394" y="0" type="line"/>
    </contour>
    <contour>
      <point x="653" y="542" type="line"/>
      <point x="405" y="542" type="line"/>
      <point x="405" y="491" type="line"/>
      <point x="405" y="491" type="line"/>
      <point x="439" y="490"/>
      <point x="481" y="486"/>
      <point x="481" y="476" type="curve"/>
      <point x="548" y="445" type="line"/>
      <point x="583" y="477"/>
      <point x="611" y="489"/>
      <point x="653" y="491" type="curve"/>
      <point x="653" y="491" type="line"/>
    </contour>
    <contour>
      <point x="107" y="0" type="line"/>
      <point x="262" y="0" type="line"/>
      <point x="262" y="750" type="line"/>
      <point x="34" y="750" type="line"/>
      <point x="34" y="696" type="line"/>
      <point x="44" y="693" type="line" smooth="yes"/>
      <point x="83" y="684"/>
      <point x="107" y="678"/>
      <point x="107" y="649" type="curve" smooth="yes"/>
    </contour>
    <contour>
      <point x="384" y="250" type="line"/>
      <point x="384" y="315" type="line"/>
      <point x="178" y="315" type="line"/>
      <point x="178" y="250" type="line"/>
    </contour>
  </outline>
</glyph>
<glyph name="s.srf" format="1">
  <advance width="558"/>
  <outline>
    <contour>
      <point x="286" y="49" type="curve" smooth="yes"/>
      <point x="204" y="49"/>
      <point x="144" y="96"/>
      <point x="120" y="174" type="curve"/>
      <point x="36" y="174" type="line"/>
      <point x="36" y="0" type="line"/>
      <point x="96" y="0" type="line"/>
      <point x="115" y="127" type="line"/>
      <point x="112" y="130"/>
      <point x="80" y="148"/>
      <point x="74" y="149" type="curve"/>
      <point x="102" y="38"/>
      <point x="195" y="-11"/>
      <point x="303" y="-11" type="curve"/>
      <point x="441" y="-11"/>
      <point x="527" y="52"/>
      <point x="527" y="162" type="curve" smooth="yes"/>
      <point x="527" y="285"/>
      <point x="427" y="312"/>
      <point x="338" y="332" type="curve" smooth="yes"/>
      <point x="260" y="349"/>
      <point x="190" y="357"/>
      <point x="190" y="421" type="curve" smooth="yes"/>
      <point x="190" y="463"/>
      <point x="216" y="492"/>
      <point x="271" y="492" type="curve" smooth="yes"/>
      <point x="337" y="492"/>
      <point x="380" y="452"/>
      <point x="405" y="387" type="curve"/>
      <point x="488" y="387" type="line"/>
      <point x="488" y="542" type="line"/>
      <point x="431" y="542" type="line"/>
      <point x="412" y="443" type="line"/>
      <point x="415" y="437"/>
      <point x="446" y="413"/>
      <point x="450" y="410" type="curve"/>
      <point x="433" y="478"/>
      <point x="373" y="552"/>
      <point x="250" y="552" type="curve" smooth="yes"/>
      <point x="131" y="552"/>
      <point x="50" y="489"/>
      <point x="50" y="388" type="curve" smooth="yes"/>
      <point x="50" y="268"/>
      <point x="150" y="239"/>
      <point x="238" y="219" type="curve" smooth="yes"/>
      <point x="312" y="201"/>
      <point x="383" y="191"/>
      <point x="383" y="128" type="curve" smooth="yes"/>
      <point x="383" y="74"/>
      <point x="343" y="49"/>
    </contour>
  </outline>
</glyph>
<glyph name="seven.alt" format="1">
  <advance width="574"/>
  <outline>
    <contour>
      <point x="129" y="0" type="line"/>
      <point x="430" y="617" type="line"/>
      <point x="446" y="597" type="line"/>
      <point x="143" y="597" type="line"/>
      <point x="143" y="597" type="line"/>
      <point x="143" y="480" type="line"/>
      <point x="36" y="480" type="line"/>
      <point x="36" y="710" type="line"/>
      <point x="560" y="710" type="line"/>
      <point x="560" y="605" type="line"/>
      <point x="307" y="0" type="line"/>
    </contour>
  </outline>
</glyph>
